<?xml version="1.0" encoding="UTF-8" standalone="no"?>
<!DOCTYPE svg PUBLIC "-//W3C//DTD SVG 1.1//EN" "http://www.w3.org/Graphics/SVG/1.1/DTD/svg11.dtd">
<svg width="100%" height="100%" viewBox="0 0 15 15" version="1.1" xmlns="http://www.w3.org/2000/svg" xmlns:xlink="http://www.w3.org/1999/xlink" xml:space="preserve" xmlns:serif="http://www.serif.com/" style="fill-rule:evenodd;clip-rule:evenodd;stroke-linejoin:round;stroke-miterlimit:2;">
    <g transform="matrix(1.00188,0,0,1.00188,-10.0188,-11.0213)">
        <path d="M23.743,23.575L19.91,19.74C20.597,18.803 20.965,17.67 20.96,16.508C20.947,13.475 18.494,11.018 15.461,11.001C14.009,10.994 12.615,11.568 11.59,12.595C10.564,13.623 9.992,15.017 10,16.469C10.013,19.502 12.467,21.959 15.5,21.977C16.667,21.982 17.804,21.609 18.742,20.915L18.746,20.912L22.575,24.744C22.782,24.961 23.091,25.049 23.381,24.973C23.672,24.898 23.898,24.671 23.973,24.381C24.049,24.09 23.96,23.782 23.743,23.575ZM15.496,20.879C13.07,20.865 11.107,18.899 11.096,16.473C11.09,15.312 11.547,14.196 12.368,13.375C13.188,12.553 14.303,12.093 15.464,12.098C17.891,12.112 19.853,14.078 19.864,16.504C19.871,17.665 19.413,18.781 18.592,19.602C17.772,20.424 16.657,20.884 15.496,20.879Z" style="fill:rgb(142,142,147);"/>
    </g>
</svg>
